# xmcd
#
# Track frame offsets: 
#        182
#        15265
#        36615
#        57867
#        69350
#        87467
#        95767
#        114870
#        128030
#        162045
#        184287
#        206185
#        222372
#        239425
#        254192
#        268250
#        289887
#
# Disc length: 4307 seconds
#
# Revision: 5
# Processed by: cddbd v1.5.2PL0 Copyright (c) Steve Scherf et al.
# Submitted via: ExactAudioCopy v1.0b3
#
DISCID=0810d111
DTITLE=Jeff Beck - Truth and Beck-Ola
DYEAR=1991
DGENRE=Rock
TTITLE0=Shapes Of Things
TTITLE1=Let Me Love You
TTITLE2=Morning Dew
TTITLE3=You Shook Me
TTITLE4=Ol' Man River
TTITLE5=Greensleeves
TTITLE6=Rock My Plimsoul
TTITLE7=Beck's Bolero
TTITLE8=Blues De Luxe
TTITLE9=I Ain't Superstitious
TTITLE10=All Shook Up
TTITLE11=Spanish Boots
TTITLE12=Girls From Mill Valley
TTITLE13=Jailhouse Rock
TTITLE14=Plynth (Water Down The Drain)
TTITLE15=The Hangman's Knee
TTITLE16=Rice Pudding
EXTD=YEAR: 1991
EXTT0=
EXTT1=
EXTT2=
EXTT3=
EXTT4=
EXTT5=
EXTT6=
EXTT7=
EXTT8=
EXTT9=
EXTT10=
EXTT11=
EXTT12=
EXTT13=
EXTT14=
EXTT15=
EXTT16=
PLAYORDER=
